<?xml version="1.0" standalone="no"?>
<!DOCTYPE svg PUBLIC "-//W3C//DTD SVG 20010904//EN"
 "http://www.w3.org/TR/2001/REC-SVG-20010904/DTD/svg10.dtd">
<svg version="1.0" xmlns="http://www.w3.org/2000/svg"
 width="336.000000pt" height="336.000000pt" viewBox="0 0 336.000000 336.000000"
 preserveAspectRatio="xMidYMid meet">
<metadata>
Created by potrace 1.14, written by Peter Selinger 2001-2017
</metadata>
<g transform="translate(0.000000,336.000000) scale(0.100000,-0.100000)"
fill="#000000" stroke="none">
<path d="M960 3280 l0 -80 -80 0 -80 0 0 -80 0 -80 -80 0 -80 0 0 -80 0 -80
-80 0 -80 0 0 -80 0 -80 -80 0 -80 0 0 -160 0 -160 -80 0 -80 0 0 -80 0 -80
80 0 80 0 0 -80 0 -80 -80 0 -80 0 0 -80 0 -80 -80 0 -80 0 0 -240 0 -240 80
0 80 0 0 -80 0 -80 80 0 80 0 0 -80 0 -80 80 0 80 0 0 -80 0 -80 -80 0 -80 0
0 -80 0 -80 406 0 c304 0 403 -3 398 -12 -5 -7 -3 -8 7 -2 22 13 37 13 42 -1
3 -7 -2 -12 -11 -12 -32 0 -39 -3 -39 -18 0 -8 5 -11 10 -8 7 4 8 -1 3 -13
-13 -33 -12 -39 9 -37 14 1 21 -4 22 -17 1 -11 -2 -20 -8 -20 -5 0 -9 4 -9 8
0 5 -6 9 -13 9 -8 0 -14 -6 -14 -13 0 -7 6 -10 14 -7 9 4 11 0 7 -11 -3 -9 -9
-14 -13 -11 -4 2 -8 -2 -8 -9 0 -8 6 -12 14 -9 9 4 11 0 7 -11 -3 -9 -9 -14
-13 -12 -3 2 -7 -18 -7 -45 0 -47 0 -48 18 -32 17 15 19 15 38 -2 23 -21 19
-35 -4 -16 -12 10 -19 10 -33 -1 -10 -7 -19 -20 -21 -28 -1 -10 2 -9 13 4 8
11 15 14 15 7 0 -7 5 -9 11 -5 7 4 10 1 7 -7 -3 -8 -10 -15 -16 -15 -7 -1 -16
-2 -20 -3 -5 0 -9 -8 -9 -16 0 -8 5 -11 10 -8 7 4 8 -1 3 -13 -13 -33 -12 -39
9 -37 14 1 21 -4 22 -17 1 -11 -2 -20 -8 -20 -5 0 -9 4 -9 8 0 5 -6 9 -13 9
-8 0 -14 -6 -14 -13 0 -7 7 -10 15 -6 9 3 13 1 9 -4 -3 -5 3 -10 13 -10 10 0
16 4 14 8 -7 10 10 10 20 1 4 -5 22 -8 39 -8 37 -1 60 -12 52 -26 -3 -5 1 -6
10 -3 11 5 14 2 9 -10 -3 -9 -11 -13 -17 -9 -6 3 -7 1 -3 -5 7 -11 31 -7 53
10 8 7 11 4 10 -11 -1 -14 -8 -19 -22 -18 -14 1 -20 -3 -18 -16 0 -11 -4 -16
-11 -14 -11 5 -14 -15 -7 -54 1 -3 8 -6 16 -6 8 0 12 4 10 8 -3 4 2 10 11 13
11 4 15 2 11 -7 -3 -8 1 -14 8 -14 15 0 15 18 1 29 -5 3 -11 16 -13 27 -3 19
-1 20 17 9 14 -9 16 -15 7 -21 -8 -6 -5 -7 7 -3 14 5 17 2 12 -10 -10 -25 3
-34 30 -22 15 7 20 14 13 18 -8 6 -8 13 1 30 9 18 9 24 0 30 -9 6 -9 9 1 13
12 5 12 6 0 6 -10 1 -11 4 -2 15 16 19 -13 30 -41 15 -15 -8 -22 -8 -28 1 -5
8 -9 8 -11 2 -3 -7 -12 -7 -27 2 -19 10 -12 12 51 12 l73 1 0 -66 c-1 -36 -5
-72 -9 -79 -6 -8 -4 -12 5 -10 7 2 12 -3 10 -11 -3 -12 0 -12 13 -1 13 11 15
10 12 -9 -2 -13 -8 -26 -13 -29 -5 -4 -10 -13 -12 -20 -2 -10 2 -10 17 -2 26
13 34 13 25 -2 -4 -6 -3 -8 3 -5 6 4 14 0 17 -9 5 -12 2 -15 -11 -9 -33 12
-38 10 -36 -13 2 -13 -1 -21 -5 -18 -5 3 -9 -1 -9 -9 0 -17 -1 -16 49 -19 20
-1 36 2 35 7 -1 5 4 12 11 14 7 3 11 -1 10 -7 -2 -7 3 -14 10 -16 7 -1 8 0 2
3 -6 3 -3 12 8 21 9 10 13 14 8 10 -22 -17 -29 -6 -8 11 13 12 17 21 11 23 -9
3 -9 10 0 26 13 24 0 65 -13 43 -4 -6 -2 -11 3 -11 6 0 11 -4 11 -9 0 -6 -9
-9 -20 -8 -15 1 -19 6 -14 22 4 14 3 16 -4 6 -7 -10 -11 -10 -14 -1 -3 10 -9
10 -27 1 -12 -7 -25 -10 -29 -7 -3 3 0 6 7 6 7 0 10 4 7 8 -3 5 21 9 53 8 l58
0 -1 -72 c-1 -40 -5 -70 -10 -66 -5 3 -6 0 -2 -6 5 -8 103 -11 331 -11 l325
-1 0 80 0 80 80 0 80 0 0 80 0 80 85 0 c47 0 88 0 91 -1 4 0 10 5 15 13 8 13
12 14 47 17 15 1 15 3 2 12 -12 8 -11 10 5 7 11 -2 21 -9 21 -16 1 -6 2 -16 3
-20 0 -5 8 -9 17 -9 14 0 14 2 -2 14 -18 13 -17 14 9 10 16 -2 32 -7 35 -13
10 -13 35 -17 27 -4 -4 6 3 9 17 7 23 -2 25 3 13 36 -6 13 -3 16 9 11 9 -3 13
-11 9 -17 -3 -6 -1 -7 5 -3 15 9 15 1 2 -25 -8 -15 -8 -19 2 -17 7 2 16 8 20
13 4 6 12 11 18 11 5 1 14 2 18 3 5 0 9 8 9 16 0 8 -5 11 -10 8 -7 -4 -8 1 -3
13 13 33 12 39 -9 37 -14 -1 -21 4 -22 17 -1 11 2 20 8 20 5 0 9 -4 9 -8 0 -5
6 -9 13 -9 8 0 14 6 14 12 0 12 -40 12 -69 0 -12 -4 -18 -3 -18 5 0 7 -9 2
-20 -11 -18 -22 -30 -15 -12 7 4 5 -1 1 -10 -9 -13 -14 -18 -15 -18 -6 0 11
-3 11 -11 -1 -9 -12 -10 -11 -6 7 4 20 3 21 -15 12 -16 -8 -23 -8 -29 2 -7 11
-9 11 -9 1 0 -10 -5 -10 -21 -2 -16 9 -24 8 -38 -4 -10 -9 -21 -13 -24 -9 -4
3 -7 2 -7 -4 0 -17 31 -25 46 -12 12 10 13 7 10 -12 -3 -13 -5 -26 -5 -29 -1
-3 -6 2 -11 10 -8 13 -11 13 -26 -1 -12 -13 -14 -21 -5 -37 8 -15 7 -21 -2
-25 -9 -3 -12 14 -13 67 l0 71 234 2 c129 2 237 5 240 8 3 3 6 37 7 77 l1 73
79 2 c127 5 154 7 149 14 -2 4 3 10 12 13 11 4 15 2 11 -8 -6 -14 16 -16 29
-3 12 12 26 8 18 -5 -4 -7 -3 -10 1 -5 5 4 9 29 10 56 1 37 -2 48 -12 44 -9
-4 -11 0 -7 11 3 9 11 13 17 9 5 -3 7 -1 4 5 -4 5 -17 8 -30 6 -12 -2 -16 -2
-9 2 6 3 10 10 7 14 -3 5 4 7 15 5 20 -4 20 0 20 321 l0 324 -80 0 -80 0 0 80
0 80 -80 0 -80 0 0 80 0 80 -240 0 -240 0 0 160 0 160 -80 0 -80 0 0 80 0 80
80 0 80 0 0 160 0 160 -80 0 -80 0 0 80 0 80 -320 0 -320 0 0 -80 0 -80 -80 0
-80 0 0 80 0 80 -80 0 -80 0 0 160 0 160 80 0 80 0 0 160 0 160 -320 0 -320 0
0 -80z m294 -2489 c-3 -3 -16 -6 -27 -6 -22 0 -24 -6 -12 -38 6 -13 3 -16 -9
-11 -9 3 -13 11 -9 17 3 5 1 7 -4 4 -7 -4 -10 2 -9 17 1 20 6 23 39 23 20 0
35 -3 31 -6z m22 -13 c-2 -13 1 -29 6 -35 9 -11 5 -18 -5 -10 -2 1 -11 -4 -20
-11 -9 -8 -22 -10 -29 -6 -11 6 -11 5 0 -8 10 -13 9 -18 -4 -29 -13 -11 -15
-11 -14 2 6 39 -1 41 -63 24 -13 -4 -17 -3 -11 2 6 4 10 21 8 38 -2 22 -1 26
6 15 9 -13 10 -13 10 0 0 13 1 13 10 0 12 -19 13 -33 1 -25 -5 3 -12 2 -15 -3
-2 -4 12 -7 32 -7 29 2 37 6 37 21 1 10 -4 23 -10 27 -5 5 0 6 12 2 13 -3 27
0 35 9 17 20 18 20 14 -6z m1939 12 c-3 -5 -1 -10 5 -10 8 0 8 -6 0 -20 -6
-11 -7 -26 -3 -33 11 -18 12 -37 2 -37 -5 0 -9 -5 -9 -12 0 -6 3 -8 7 -5 3 4
13 1 22 -6 14 -11 14 -10 2 6 -8 10 -9 17 -3 17 6 0 14 -5 17 -10 5 -8 11 -7
21 1 8 7 14 7 14 1 0 -12 -24 -23 -60 -28 -25 -3 -25 -2 -26 71 0 41 4 75 9
75 4 0 5 -4 2 -10z m91 -7 c-3 -7 2 -16 10 -21 12 -7 7 -9 -17 -10 -20 0 -28
2 -20 7 9 6 7 10 -8 14 -15 4 -25 -1 -32 -15 -8 -16 -8 -19 1 -13 8 5 11 3 9
-4 -6 -18 -25 -9 -21 9 2 8 3 22 3 30 1 12 11 16 40 16 28 0 38 -3 35 -13z
m-23 -56 c-3 -4 -8 -5 -13 -2 -5 3 -7 -6 -4 -20 4 -23 3 -24 -15 -13 -16 10
-17 13 -5 26 9 8 12 22 8 34 -6 19 -5 20 13 1 11 -10 18 -21 16 -26z m62 -24
c-1 -14 -11 -32 -21 -41 -17 -16 -17 -16 -3 2 8 12 9 17 2 13 -7 -5 -21 1 -31
11 -17 17 -17 20 -3 39 22 28 60 12 56 -24z m-2070 -100 c-1 -59 3 -113 7
-120 5 -6 5 -14 0 -17 -5 -3 -8 -34 -7 -69 l2 -63 -29 0 c-32 0 -35 8 -11 27
15 12 16 12 10 -3 -9 -25 0 -22 14 3 8 15 8 19 0 15 -15 -10 -14 7 2 24 10 12
9 12 -6 1 -9 -8 -20 -11 -23 -8 -3 3 3 11 15 19 20 12 20 13 -12 31 -17 10
-24 16 -14 13 24 -8 47 3 47 23 0 13 -2 13 -9 2 -5 -8 -11 -9 -15 -3 -4 6 1
15 11 20 15 9 15 14 5 38 -11 22 -11 29 0 35 10 7 10 9 1 9 -15 0 -13 21 2 32
6 5 5 8 -3 8 -10 0 -10 5 -2 20 9 16 8 19 -6 13 -15 -5 -15 -3 1 23 l18 29
-26 -30 c-15 -16 -26 -26 -27 -22 0 12 42 67 49 62 4 -2 6 -52 6 -112z m-74
84 c-10 -10 13 -42 30 -42 4 0 11 -4 16 -9 5 -5 3 -6 -4 -2 -7 4 -14 2 -14 -3
-1 -6 -2 -17 -3 -23 -1 -16 -36 -23 -36 -8 0 6 6 8 13 4 6 -4 9 -4 5 1 -4 4
-2 15 5 23 10 13 9 14 -1 8 -7 -4 -19 -3 -27 4 -9 8 -15 8 -20 0 -4 -6 -1 -9
6 -8 6 2 14 -3 17 -11 3 -8 0 -11 -6 -7 -6 4 -16 -3 -22 -14 -8 -14 -8 -20 0
-20 6 0 8 -5 5 -10 -4 -6 -12 -7 -18 -4 -8 4 -7 2 1 -7 11 -12 14 -12 21 0 5
7 6 22 3 34 -5 20 -5 20 14 1 16 -15 17 -22 7 -32 -13 -13 -7 -46 7 -37 11 7
22 -24 13 -37 -3 -6 -1 -8 4 -5 6 4 17 -1 24 -10 12 -14 11 -15 -8 -9 -12 4
-24 3 -26 -2 -6 -9 7 -34 17 -33 24 3 27 -1 12 -18 -11 -12 -14 -21 -7 -26 7
-4 5 -14 -6 -30 -16 -21 -20 -22 -35 -8 -19 17 -13 44 8 36 11 -4 12 -9 3 -19
-8 -10 -8 -14 0 -14 6 0 11 3 12 8 0 4 2 18 3 30 2 13 -3 26 -11 29 -7 3 -10
10 -6 16 3 5 1 7 -5 3 -5 -3 -13 0 -16 6 -3 7 -3 2 0 -11 4 -15 2 -21 -4 -17
-6 3 -14 1 -18 -5 -4 -7 -3 -9 4 -5 6 3 13 2 16 -3 6 -9 -34 -24 -43 -16 -2 3
1 5 7 5 6 0 9 13 7 33 -3 19 -1 27 4 19 7 -11 9 -10 15 3 3 9 10 13 16 10 20
-13 9 14 -12 29 -12 9 -18 16 -14 16 5 0 17 -7 26 -15 29 -26 33 9 5 35 -20
19 -27 21 -40 10 -13 -11 -14 -8 -11 17 1 16 8 38 13 48 6 10 8 26 6 35 -3 12
3 20 17 25 15 5 19 10 12 17 -15 15 -3 38 14 31 10 -4 12 -9 5 -16z m39 -97
c-11 -7 -11 -10 -2 -10 7 0 10 -4 7 -10 -3 -5 -1 -19 6 -31 9 -17 8 -25 -5
-37 -14 -14 -16 -14 -17 -2 -1 8 -1 18 0 22 0 4 -9 10 -20 13 -16 5 -18 10 -8
21 6 7 16 11 22 7 6 -3 7 -1 3 5 -9 15 1 32 17 32 7 0 6 -4 -3 -10z m1404
-146 c9 -8 16 -11 16 -6 0 5 8 9 18 8 18 -1 32 -14 32 -31 0 -5 -5 -3 -10 5
-5 8 -10 10 -10 5 0 -6 5 -16 12 -23 8 -8 8 -12 1 -12 -14 0 -34 25 -26 33 3
4 1 7 -5 7 -6 0 -14 -4 -17 -10 -3 -5 -1 -10 5 -10 6 0 8 -5 5 -10 -5 -8 -11
-7 -21 1 -10 8 -11 14 -4 19 7 5 6 11 -4 19 -10 8 -16 9 -21 1 -3 -5 -11 -10
-17 -10 -7 0 -6 6 2 15 16 19 25 19 44 -1z m145 -6 c-5 -38 2 -40 64 -23 13 4
17 3 11 -2 -6 -4 -10 -21 -9 -38 2 -16 1 -24 -2 -17 -4 10 -8 10 -17 -3 -9
-13 -11 -12 -12 10 -1 14 2 23 6 20 5 -3 11 -2 14 3 2 4 -12 7 -32 7 -29 -2
-37 -6 -37 -21 -1 -10 3 -22 8 -25 9 -6 -50 -5 -63 1 -3 1 -8 2 -12 1 -5 0 -8
3 -8 9 0 5 -6 7 -14 4 -16 -6 -30 11 -21 26 5 8 11 7 21 -1 14 -12 28 -6 30
12 1 5 2 13 3 17 0 5 8 9 16 9 9 0 14 -5 12 -11 -3 -6 -9 -10 -15 -9 -6 2 -9
-6 -7 -17 3 -14 0 -18 -8 -14 -7 4 -9 3 -5 -1 5 -5 20 -9 35 -11 16 -1 22 0
15 3 -10 4 -10 8 0 21 10 14 10 15 -2 5 -20 -18 -35 -16 -20 2 7 9 20 13 28
10 11 -4 12 -2 4 8 -9 10 -8 17 0 25 15 15 19 15 17 0z m35 -13 c-3 -7 -12
-11 -20 -8 -11 4 -12 9 -3 19 14 17 30 9 23 -11z m-1614 -19 c0 -11 -19 -15
-25 -6 -3 5 1 10 9 10 9 0 16 -2 16 -4z m1400 -27 c0 -6 -4 -7 -10 -4 -6 3 -7
-1 -4 -12 5 -17 5 -17 -6 0 -6 9 -8 22 -5 27 7 12 25 4 25 -11z m22 -8 c-22
-22 -27 -19 -12 8 6 12 15 19 20 16 5 -3 2 -14 -8 -24z m-1225 -89 c-1 -13 -9
-19 -29 -19 -22 0 -25 3 -17 14 6 7 15 10 20 7 5 -3 9 0 9 5 0 6 4 11 9 11 6
0 9 -8 8 -18z m-1 -37 c17 -13 17 -14 2 -15 -10 0 -18 5 -18 10 0 6 -6 10 -12
10 -8 -1 -5 -8 7 -18 19 -16 32 -57 15 -47 -5 3 -10 2 -13 -2 -2 -5 -2 -2 -1
5 5 19 -7 42 -22 42 -17 0 -18 17 -1 23 19 8 22 8 43 -8z m-76 1 c0 -3 -4 -8
-10 -11 -5 -3 -10 -1 -10 4 0 6 5 11 10 11 6 0 10 -2 10 -4z m-10 -36 c-13 -9
-13 -10 0 -10 13 0 13 -1 0 -10 -21 -13 -30 -12 -27 3 2 14 18 27 32 27 6 0 3
-5 -5 -10z m206 -111 c-4 -29 2 -34 33 -29 13 1 13 -1 2 -14 -11 -13 -17 -14
-28 -5 -11 9 -12 9 -8 -3 3 -8 -1 -21 -10 -28 -18 -15 -20 0 -2 20 10 12 9 12
-5 2 -13 -10 -17 -10 -22 0 -3 7 -4 4 -1 -8 3 -13 0 -21 -8 -21 -8 0 -14 12
-14 29 0 16 3 25 6 21 3 -5 15 -9 25 -8 15 0 19 8 21 37 0 20 -3 34 -7 32 -5
-3 -6 -9 -3 -14 3 -4 -6 -7 -20 -6 -31 1 -31 2 2 20 35 18 45 12 39 -25z m33
-15 c-10 -12 -14 -12 -20 -2 -4 7 -3 16 4 20 18 11 29 -2 16 -18z"/>
<path d="M1238 753 c10 -4 10 -8 0 -21 -12 -15 -11 -16 4 -4 9 8 23 11 30 7 7
-4 4 1 -6 9 -11 9 -25 16 -30 15 -6 0 -5 -3 2 -6z"/>
<path d="M3306 718 c3 -4 0 -8 -6 -8 -6 0 -8 -4 -5 -10 3 -5 11 -10 17 -10 6
0 8 3 5 7 -4 3 -2 11 3 18 7 8 5 12 -5 12 -8 0 -12 -4 -9 -9z"/>
<path d="M1210 546 c0 -2 7 -7 16 -10 8 -3 12 -2 9 4 -6 10 -25 14 -25 6z"/>
<path d="M3073 613 c-10 -10 -14 -15 -9 -10 22 17 29 5 7 -13 -13 -11 -18 -20
-12 -20 6 0 11 -5 11 -11 0 -5 -3 -8 -8 -5 -4 2 -7 -13 -7 -33 0 -21 5 -38 11
-38 6 0 11 6 11 14 0 7 -4 13 -9 13 -4 0 -8 4 -8 9 0 6 9 9 20 8 13 -1 18 -8
17 -22 -2 -21 4 -22 37 -9 12 5 17 4 13 -3 -3 -5 0 -10 8 -10 8 0 16 4 16 9 1
4 2 13 3 18 0 6 6 14 11 18 6 4 11 13 13 20 2 10 -2 10 -17 2 -26 -13 -34 -13
-25 2 4 6 3 8 -3 5 -6 -4 -14 0 -17 9 -5 12 -2 15 11 9 33 -12 38 -10 36 13
-2 13 1 21 5 18 5 -3 9 1 9 9 0 8 -4 15 -8 15 -11 0 -19 -28 -13 -47 3 -10 -3
-3 -13 14 -18 32 -19 32 -31 12 -8 -12 -16 -18 -19 -15 -3 3 0 14 8 23 11 15
11 16 -1 6 -17 -15 -34 -17 -25 -3 10 15 -1 12 -22 -7z m80 -17 c3 -8 -1 -13
-10 -12 -11 1 -16 -9 -17 -36 -1 -20 2 -34 6 -32 5 3 6 9 3 14 -3 4 6 7 20 6
22 -1 23 -3 10 -12 -13 -9 -13 -13 -3 -17 7 -3 0 -4 -17 -2 -16 1 -34 -3 -38
-9 -5 -6 -6 -2 -2 11 17 62 15 69 -24 63 -13 -1 -13 1 -2 14 10 12 17 13 26 6
9 -7 16 -6 25 5 15 18 17 18 23 1z m-56 -58 c-18 -11 -29 2 -16 18 10 12 14
12 20 2 4 -7 3 -16 -4 -20z"/>
<path d="M2626 332 c-2 -4 4 -8 14 -8 10 0 16 4 14 8 -3 4 -9 8 -14 8 -5 0
-11 -4 -14 -8z"/>
</g>
</svg>
